# xmcd CD database file
#
# Track frame offsets:
#	150
#	15732
#	46382
#	83956
#	105423
#	119206
#	132340
#	145782
#	167159
#	196220
#	213375
#	221025
#	225675
#	240869
#	262168
#	273661
#	297955
#	318211
#
# Disc length: 4426 seconds
#
# Revision: 0
# Processed by: cddbd v1.5.1PL2 Copyright (c) Steve Scherf et al.
# Submitted via: CDex 1.51
#
DISCID=11114812
DTITLE=Various Artist - Razzias (Festival du monde Arabe de MTL)
DYEAR=2004
DGENRE=World music
TTITLE0=Marcel Khalifé and l'Ensemble Al Mayadire
TTITLE1=Ensemble Appassionata
TTITLE2=Le Cercle de L'Extase
TTITLE3=Maryen Tollar and Mernie
TTITLE4=Jason Rosembalt
TTITLE5=Ismail Fencioglu
TTITLE6=Zad Moultaka
TTITLE7=Hossein Omoumi
TTITLE8=Nassir Shamma
TTITLE9=Ganesh Anandan and Patrick Graham
TTITLE10=Orchestre Oriental D'Alep
TTITLE11=Pascal Boudreault
TTITLE12=Madjid Khaladj
TTITLE13=Er Kan Ogur
TTITLE14=Lubo Alexandrov
TTITLE15=Gnawa El Jazz
TTITLE16=Nacer Eddine Alssaoui
TTITLE17=Nass El Ghiwane
EXTD=YEAR: 2004
EXTT0=
EXTT1=
EXTT2=
EXTT3=
EXTT4=
EXTT5=
EXTT6=
EXTT7=
EXTT8=
EXTT9=
EXTT10=
EXTT11=
EXTT12=
EXTT13=
EXTT14=
EXTT15=
EXTT16=
EXTT17=
PLAYORDER=
